<?xml version="1.0" encoding="UTF-8"?>
<svg id="Layer_1" data-name="Layer 1" xmlns="http://www.w3.org/2000/svg" viewBox="0 0 419.41 229.92">
  <defs>
    <style>
      .cls-1 {
        fill: #9e1f63;
        stroke-width: 0px;
      }
    </style>
  </defs>
  <path class="cls-1" d="M63.53,64.96c-3.68,12.39-6.07,25.15-7.18,38.03-.55,6.45-.81,12.95-.64,19.43.14,5.7.93,11.47,4.08,16.36,5.45,8.45,16.25,13.5,25.98,9.54,9.28-3.78,14.49-13.16,18.55-21.79,6.39-13.59,12.62-27.25,18.93-40.88.57-1.22.35-2.69-.9-3.42-1.08-.63-2.85-.33-3.42.9-5.39,11.64-10.78,23.29-16.18,34.93-2.13,4.6-4.17,9.26-6.74,13.63-2.15,3.65-4.74,7.34-8.22,9.84s-7.43,3.75-11.55,3-8.01-3.2-10.81-6.49c-3.25-3.82-4.36-8.66-4.63-13.56-.33-6.04-.1-12.14.31-18.17.92-13.56,3.39-26.99,7.26-40.02.92-3.09-3.91-4.41-4.82-1.33h0Z"/>
  <path class="cls-1" d="M95.42,68.66v14.58c0,1.31,1.15,2.56,2.5,2.5s2.5-1.1,2.5-2.5v-14.58c0-1.31-1.15-2.56-2.5-2.5s-2.5,1.1-2.5,2.5h0Z"/>
  <path class="cls-1" d="M70.33,64.04c11.2-11.17,17.11-26.36,20.04-41.65.76-3.97,1.28-7.97,1.79-11.98.17-1.35.36-3.14,1.53-4.01,1.28-.95,3.24-.99,4.77-1.13,3.39-.33,6.97-.56,10.25.52s4.91,3.84,5.67,7.06c1.13,4.81,1.4,9.89,2,14.79.67,5.4,1.33,10.81,2,16.21.2,1.6,1.44,2.85,3.16,2.41,11.5-2.94,22.88,3.37,32.11,9.59,10.13,6.83,19.75,14.44,28.86,22.57,5.22,4.65,10.26,9.5,15.13,14.51,2.25,2.31,5.78-1.22,3.54-3.54-8.89-9.16-18.37-17.74-28.39-25.65-5.05-3.99-10.22-7.83-15.52-11.48s-10.72-6.86-16.67-9.14c-6.5-2.49-13.56-3.44-20.37-1.69l3.16,2.41c-1.23-9.99-2.2-20.06-3.74-30.01-.65-4.2-2.14-8.23-5.65-10.86C110.84.61,106.76-.01,102.92,0c-1.86,0-3.71.17-5.55.37-2.12.24-4.38.49-6.21,1.7-3.91,2.59-3.84,7.39-4.4,11.56-1.09,8.13-2.87,16.21-5.71,23.91-3.15,8.53-7.8,16.52-14.26,22.96-2.28,2.27,1.25,5.81,3.54,3.54h0Z"/>
  <path class="cls-1" d="M120.29,85.04c16.42,3.34,28.3,16.75,34.35,31.8,3.22,8.03,5.01,16.55,5.28,25.19.36,11.53-1.35,22.97-3.85,34.19-2.85,12.79-6.65,25.34-9.75,38.07-.41,1.7.78,3,2.41,3.16,15.36,1.55,24.38-14.37,35.24-22.27,6.85-4.99,15.06-7.41,23.35-8.71,9.26-1.46,18.78-1.73,28.14-1.81,10.27-.09,20.55.36,30.77,1.35,9.36.9,19.1,1.83,27.94,5.24,13.48,5.2,21.66,17.97,31.91,27.41,5.04,4.64,10.79,8.69,17.49,10.47,1.98.53,4.13,1.01,6.17.66,2.26-.39,3.95-1.94,4.7-4.08.64-1.81.54-3.77.29-5.64-.33-2.55-.75-5.09-1.21-7.62-1.66-9.21-4.04-18.81-2.57-28.21,1.3-8.27,5.93-15.18,9.83-22.4,3.99-7.38,6.85-15.18,5.37-23.67s-6.98-16.05-12.65-22.44c-11.65-13.15-25.57-25.15-42.49-30.75-17.9-5.94-37.19-4.84-55.72-3.55-10.21.71-20.41,1.44-30.62,2.16-5.21.37-10.42.74-15.63,1.1-4.08.29-8.19.35-11.96,2.13-3.34,1.57-5.37,4.44-4.84,8.18.19,1.34,1.89,2.07,3.08,1.75,1.44-.4,1.94-1.73,1.75-3.08-.03-.2.14-.66.21-.79.2-.36.51-.67.89-.94,1.25-.89,2.69-1.32,4.19-1.64,1.79-.38,3.76-.41,5.69-.55,2.48-.18,4.96-.35,7.44-.53,10.01-.71,20.01-1.41,30.02-2.12,18.11-1.28,36.77-3.36,54.75.21,8.56,1.7,16.63,4.8,24.05,9.4s13.56,10,19.48,15.98,11.75,12.18,15.31,19.78c1.63,3.48,2.59,7.31,2.5,11.17-.08,3.57-1.1,7.09-2.51,10.35-3.17,7.31-7.92,13.8-10.85,21.23-3.41,8.65-3.02,17.9-1.62,26.93.73,4.74,1.72,9.44,2.52,14.17.34,2,.77,4.04.78,6.07,0,1.34-.12,2.52-1.67,2.51-2.99-.03-6.23-1.38-8.81-2.7-2.79-1.43-5.37-3.23-7.75-5.26-10.33-8.77-17.93-20.7-29.87-27.57-7.88-4.53-16.91-6.11-25.8-7.27-9.86-1.29-19.78-2.07-29.72-2.35s-19.58-.1-29.33.63c-8.36.63-16.85,1.75-24.72,4.76-3.88,1.48-7.62,3.36-10.97,5.83-2.96,2.17-5.65,4.66-8.28,7.21-4.82,4.68-9.56,9.99-15.75,12.87-2.69,1.25-5.53,1.68-8.51,1.38l2.41,3.16c5.64-23.16,13.8-46.2,13.82-70.31.02-18.25-5.79-37.01-18.35-50.59-6.66-7.2-15.33-12.54-25-14.51-1.32-.27-2.7.38-3.08,1.75-.34,1.24.42,2.8,1.75,3.08h0Z"/>
  <path class="cls-1" d="M126.93,48.81c6-6.61,12.33-12.9,18.98-18.87l-3.93-.51c.56,1.04.58,1.95.28,3.11-.39,1.51-1.02,2.63-1.84,4.08-1.67,2.95-3.73,5.94-4.35,9.35-.35,1.94-.33,4.02.53,5.83,1.27,2.67,4.17,3.39,6.77,2.25,2.39-1.05,4.33-3.16,6.28-4.84,2.14-1.84,4.28-3.69,6.42-5.53,4.79-4.12,9.57-8.24,14.36-12.37l-4.18-2.43c-2.1,7.25-9.67,11.53-12.64,18.45-1.71,3.98-2.27,10.2,2.23,12.62,4.23,2.27,9.76.28,13.6-1.86,1.99-1.1,3.86-2.4,5.77-3.63,1.68-1.08,3.64-2.58,5.61-3.06-.05.01.67-.22.47-.07h-.03c-.43.05-.7-.28-.8-.99-.15.07-.25.32-.37.47-.94,1.12-2.21,2.05-3.3,3.03-2.21,2-4.42,4-6.64,6.01s-4.52,3.71-6.35,5.87c-1.96,2.32-2.32,5.69.44,7.57,3.36,2.3,8.75,1.08,12.22-.35,8.43-3.46,14.65-11.32,23.63-13.54l-3.08-1.75c.22.92.26,2.23.1,3.03-.28,1.4-.61,2.16-1.2,3.27-1.37,2.56-3.07,4.59-4.83,6.79-3.62,4.52-7.73,9.7-7.07,15.88.2,1.81,1.99,3.21,3.76,2.16,5.93-3.53,12.11-6.64,18.51-9.24l-2.82-3.67c-2.82,6.61-6.94,12.49-12.23,17.36-2.37,2.18,1.17,5.71,3.54,3.54,5.57-5.12,10.04-11.41,13.01-18.37.4-.95.49-1.91-.2-2.78-.57-.71-1.7-1.27-2.63-.9-6.8,2.77-13.39,5.99-19.7,9.74l3.76,2.16c-.29-2.71.44-4.77,1.84-7.13,1.51-2.54,3.23-4.53,5.05-6.83,3.74-4.72,7.44-10.01,5.93-16.35-.32-1.34-1.8-2.06-3.08-1.75-7.87,1.95-13.67,7.84-20.45,11.87-3.08,1.83-6.42,3.23-10,3-.26-.02-1.29-.19-1.25-.26l.08.52.02-.12s.24-.39.31-.49c.45-.58,1.07-1.05,1.61-1.54,2.09-1.89,4.18-3.78,6.27-5.67s4.3-3.89,6.45-5.84c1.89-1.71,4.23-3.83,3.54-6.69-.65-2.7-3.64-3.45-6-2.73-2.06.63-4.02,1.86-5.83,3-3.53,2.22-7,5.04-11.14,6-1.23.29-3.64.73-4.52-.44-.93-1.23-.48-3.28-.13-4.53,1.01-3.57,3.97-6.6,6.45-9.44,2.88-3.29,5.69-6.73,6.93-11.01.73-2.54-2.37-3.99-4.18-2.43-7.81,6.73-15.62,13.45-23.42,20.18-.69.6-1.44,1.33-2.33,1.63-.19.07-.14.02,0,.14-.16-.14-.25-.82-.25-.81,0-.03-.04-.56-.04-.77,0-.13.06-.95.03-.71.1-.74.34-1.48.59-2.19.97-2.62,2.94-5.28,4.26-7.94,1.66-3.36,2.45-6.95.58-10.41-.8-1.48-2.77-1.54-3.93-.51-6.64,5.96-12.97,12.26-18.98,18.87-2.16,2.38,1.37,5.92,3.54,3.54h0Z"/>
  <path class="cls-1" d="M99.58,20.75v9.38c0,1.31,1.15,2.56,2.5,2.5s2.5-1.1,2.5-2.5v-9.38c0-1.31-1.15-2.56-2.5-2.5s-2.5,1.1-2.5,2.5h0Z"/>
  <path class="cls-1" d="M342.37,103.59c-1.82-4.01-.96-8.84,1.23-12.51,2.34-3.93,6.39-6.66,10.64-8.16,9.22-3.26,19.67-1.85,28.15,2.82s14.89,13.16,19.18,22.17c4.72,9.92,7.83,20.74,9.96,31.49,2.52,12.7,3.37,25.7,2.62,38.63-.18,3.21,4.82,3.2,5,0,.72-12.52-.08-25.1-2.32-37.43s-5.51-23.42-10.51-34.27c-4.63-10.04-11.41-19.35-21.23-24.81s-21.23-7.06-31.62-3.61c-5.71,1.89-11.06,5.4-14.19,10.65s-3.81,11.87-1.23,17.56c.56,1.23,2.34,1.53,3.42.9,1.26-.74,1.46-2.19.9-3.42h0Z"/>
  <path class="cls-1" d="M351.57,112.41c-.37-3.75-.92-8.23,2.02-11.13,2.55-2.51,6.35-3.81,9.81-4.4,7.04-1.21,14.47,1,20.39,4.79,13.96,8.96,18.6,26.92,19.88,42.44.93,11.28.53,22.61,1.43,33.89.11,1.35,1.07,2.5,2.5,2.5,1.27,0,2.61-1.15,2.5-2.5-1.59-19.99.77-40.85-7.2-59.8-3.4-8.09-8.61-15.5-15.97-20.44-6.91-4.64-15.5-7.01-23.8-5.86-4.63.64-9.49,2.44-12.93,5.7-4.12,3.91-4.15,9.55-3.63,14.81.13,1.34,1.05,2.5,2.5,2.5,1.25,0,2.63-1.15,2.5-2.5h0Z"/>
  <path class="cls-1" d="M355.46,117.86c3.29-3.89,8.16-5.91,13.2-5.9,5.29.02,10.08,2.38,13.28,6.64,3.88,5.17,5.57,11.83,6.9,18.04,1.55,7.28,2.24,14.71,2.49,22.14.29,8.49.02,16.99-.26,25.48-.11,3.22,4.89,3.21,5,0,.53-16.1,1.01-32.39-2.27-48.26-1.44-6.98-3.41-14.46-7.78-20.24-3.93-5.21-9.5-8.32-16.03-8.76s-13.71,2.16-18.07,7.31c-.87,1.03-1.01,2.52,0,3.54.89.89,2.66,1.04,3.54,0h0Z"/>
</svg>