<?xml version="1.0" encoding="UTF-8"?><svg id="Layer_2" xmlns="http://www.w3.org/2000/svg" viewBox="0 0 419.41 236.26"><defs><style>.cls-1{fill:#9e1f63;stroke-width:0px;}</style></defs><path class="cls-1" d="M64.03,65.73c-7.2,19.21-10.7,40.12-9.61,60.63.44,8.37,2.51,17.68,10.46,22.08,7.15,3.95,16.32,2.92,23.1-1.31,7.64-4.76,12.62-12.66,16.33-20.66,3.98-8.58,6.79-17.65,10.75-26.24,1.92-4.16,4.07-8.43,6.9-12.05.94-1.21,2.49-3.03,4.23-2.83s3.11,2.43,4,3.79c5.02,7.64,8.3,16.21,10.27,25.11,4.23,19.09,2.4,38.81.04,58.02-1.31,10.66-2.79,21.3-3.52,32.02-.18,2.68-.32,5.35-.39,8.04-.07,2.45-.22,5.02.43,7.41,1.24,4.58,5.49,7.13,9.85,8.21,8.83,2.19,17.94-.85,25.28-5.79,7.72-5.2,13.43-12.4,19.16-19.6s11.4-14.12,19.23-18.75c7.1-4.2,15.27-6.29,23.48-6.65,18-.8,34.91,6.06,49.58,16.04,7.84,5.33,15.07,11.48,22.09,17.83,3.54,3.2,7.03,6.47,10.51,9.73s6.91,6.62,10.71,9.52c6.74,5.15,16.21,8.42,24.1,3.69,6.31-3.78,7.68-11.02,5.9-17.69s-5.52-12.52-7.34-19.13c-.8-2.92-1.2-6-.35-8.95,1.2-4.16,4.52-7.33,7.12-10.64,5.96-7.58,9.83-16.64,10.98-26.22.6-4.99.32-10.21-1.34-14.99-1.5-4.3-3.96-8.13-6.92-11.56-5.88-6.83-13.55-12.33-21.02-17.31-7.53-5.02-15.48-9.4-23.73-13.11-16.79-7.54-34.69-12.35-53.01-14.21-9.09-.92-18.25-1.09-27.36-.47-9.77.66-19.41,2.75-29.2,3.06-4.88.15-9.76-.2-14.44-1.65-4.42-1.38-8.43-3.82-12.08-6.65-7.29-5.66-13.6-12.44-21.1-17.88s-15.73-9.59-24.89-10.61c-2.2-.25-4.38-.15-6.59-.15-1.69,0-3.57-.08-4.24-1.91-.76-2.07-.48-4.63-.45-6.79.04-2.68.18-5.36.23-8.04.15-8.72-1.06-18.68-8.03-24.81-6.37-5.6-15.14-5.35-22.25-1.27-7.76,4.46-12.19,12.2-14.36,20.67-2.31,8.98-2.31,18.36-4.44,27.37-1.74,7.34-4.91,14.91-11.47,19.18-2.69,1.75-.18,6.08,2.52,4.32,7-4.56,10.99-12.04,13.19-19.92,2.42-8.67,2.53-17.74,4.32-26.53,1.65-8.1,4.88-15.96,12.21-20.44,3.01-1.84,6.51-3.02,10.08-2.71s6.68,2.32,8.79,5.13c5.67,7.54,4.41,17.63,4.23,26.45-.09,4.3-.51,9.9,3.46,12.73,3.53,2.51,8.52,1.26,12.56,1.68,18.5,1.92,30.44,17.88,44.28,28.27,3.71,2.79,7.76,5.1,12.18,6.55s9.53,2.05,14.36,2.03c9.68-.03,19.22-2.13,28.85-2.92,17.83-1.47,35.85.09,53.19,4.49,17.27,4.38,33.79,11.52,48.75,21.19,7.36,4.76,14.78,10.03,20.75,16.49,2.86,3.09,5.39,6.65,6.79,10.65,1.6,4.6,1.79,9.59,1.06,14.38-1.39,9.08-5.45,17.22-11.28,24.25-2.76,3.33-5.61,6.78-6.68,11.08-.82,3.3-.57,6.73.21,10.01,1.56,6.58,5.2,12.42,7.22,18.85.81,2.57,1.41,5.41.78,7.96-.74,2.98-2.97,5.36-5.89,6.33-8.55,2.85-16.14-3.39-22.02-8.82-6.81-6.29-13.5-12.72-20.49-18.81-13.7-11.91-28.9-22.94-46.61-27.9-16.07-4.51-34.3-4.27-49.04,4.25-7.8,4.5-13.79,11.22-19.37,18.17s-10.91,14.32-18.19,19.56c-6.73,4.85-15.28,8.38-23.61,5.89-1.71-.51-3.56-1.33-4.65-2.82-1.34-1.83-1.08-4.4-1.04-6.53.11-5.26.47-10.52.96-15.76,1.89-20.21,5.82-40.3,5.46-60.67-.31-17.79-3.73-36.91-14.28-51.68-2.63-3.69-6.56-6.41-11.13-4.25-3.87,1.82-6.32,6.28-8.37,9.82-4.65,8.07-7.64,16.95-11.06,25.58-3.19,8.05-6.84,16.44-13.11,22.61-5.46,5.37-13.39,8.47-20.91,5.74-7.96-2.9-9.43-12.09-9.74-19.49-.41-9.96.2-20,1.83-29.84s4.19-19.28,7.65-28.52c.47-1.26-.53-2.74-1.75-3.08-1.4-.39-2.6.48-3.08,1.75h0Z"/></svg>